<svg xmlns="http://www.w3.org/2000/svg" width="28" height="18" fill="none"><path fill="#000" fill-rule="evenodd" d="M6.551 1.543c-1.938 0-3.546 1.675-3.546 3.787 0 .538.108 1.08.287 1.54l.236.606-.547.338c-.875.54-1.467 1.562-1.467 2.759 0 1.798 1.356 3.194 2.95 3.194.178 0 .369-.031.636-.08l.636-.113.21.623c.454 1.346 1.67 2.26 3.034 2.26 1.335 0 2.474-.84 2.963-2.07l.3-.76.727.352c.38.185.78.29 1.208.29q.375-.001.724-.103a6.4 6.4 0 0 0 .072 1.568 4.1 4.1 0 0 1-1.959-.09C12.192 17.053 10.705 18 8.98 18c-1.827 0-3.432-1.09-4.22-2.704a3 3 0 0 1-.296.014C1.966 15.31 0 13.151 0 10.573c0-1.495.646-2.846 1.695-3.718A6 6 0 0 1 1.49 5.33C1.491 2.427 3.718 0 6.551 0 8.01 0 9.054.532 9.734 1.081c.17.138.317.276.442.406q.114-.086.246-.174c.563-.373 1.4-.766 2.435-.766 1.519 0 2.86.785 3.712 1.965.5-.17 1.04-.278 1.614-.278 3.094 0 5.529 2.66 5.529 5.877v.071a7.4 7.4 0 0 0-1.516-.206c-.066-2.371-1.864-4.2-4.013-4.2-.547 0-1.079.147-1.607.389l-.64.293-.335-.628c-.564-1.056-1.602-1.74-2.744-1.74-.654 0-1.206.248-1.61.516-.438.29-.766.687-1.098 1.088l-.204.244-.13-.24c-.28-.524-.548-1.025-1.021-1.408-.453-.365-1.173-.747-2.243-.747m12.003 12.302 2.801-2.95-1.03-1.17-3.424 3.67v.958l3.419 3.6 1.04-1.094zm9.446-.45-3.418-3.664-1.1 1.16 2.862 2.954-2.866 3.018 1.109 1.085L28 14.353z" clip-rule="evenodd"/></svg>