<svg width="16" height="16" viewBox="0 0 16 16" fill="none" xmlns="http://www.w3.org/2000/svg">
<path d="M12.0064 6H11.9566C11.8485 5.24923 11.4993 4.55418 10.9618 4.02014C10.4242 3.4861 9.72768 3.14217 8.9776 3.04044C8.22753 2.9387 7.4648 3.08472 6.80496 3.45635C6.14511 3.82799 5.6241 4.40501 5.32083 5.1C4.83984 4.98232 4.33938 4.96847 3.85264 5.05937C3.36591 5.15027 2.90402 5.34385 2.49762 5.62727C2.09121 5.91068 1.74959 6.27745 1.4954 6.70326C1.24121 7.12906 1.08026 7.60415 1.02324 8.09704C0.966217 8.58992 1.01442 9.08932 1.16465 9.56211C1.31488 10.0349 1.5637 10.4703 1.89461 10.8394C2.22553 11.2084 2.63096 11.5028 3.08403 11.7029C3.5371 11.903 4.02745 12.0043 4.52255 12H12.0064C12.8004 12 13.5618 11.6839 14.1232 11.1213C14.6846 10.5587 15 9.79565 15 9C15 8.20435 14.6846 7.44129 14.1232 6.87868C13.5618 6.31607 12.8004 6 12.0064 6Z" fill="#424242"/>
</svg>
