<?xml version="1.0" encoding="UTF-8"?>
<svg width="34px" height="34px" viewBox="0 0 34 34" version="1.1" xmlns="http://www.w3.org/2000/svg" xmlns:xlink="http://www.w3.org/1999/xlink">
    <!-- Generator: Sketch 51.3 (57544) - http://www.bohemiancoding.com/sketch -->
    <title>github</title>
    <desc>Created with Sketch.</desc>
    <defs>
        <polygon id="path-1" points="0 -3.55271368e-15 33.5662424 -3.55271368e-15 33.5662424 33.7605125 0 33.7605125"></polygon>
    </defs>
    <g id="github" stroke="none" stroke-width="1" fill="none" fill-rule="evenodd">
        <g id="Group-3">
            <mask id="mask-2" fill="white">
                <use xlink:href="#path-1"></use>
            </mask>
            <g id="Clip-2"></g>
            <path d="M16.7821939,-3.55271368e-15 C7.51461818,-3.55271368e-15 -0.000412121212,7.7488125 -0.000412121212,17.3091875 C-0.000412121212,24.9549375 4.80801212,31.4415 11.4781939,33.7311875 C12.3178909,33.8895 12.6238909,33.3550625 12.6238909,32.8960625 C12.6238909,32.4859375 12.6094667,31.396875 12.6012242,29.9529375 C7.93292121,30.9984375 6.94795152,27.6324375 6.94795152,27.6324375 C6.18449697,25.6328125 5.08413333,25.1015625 5.08413333,25.1015625 C3.56031515,24.027375 5.19952727,24.048625 5.19952727,24.048625 C6.88407273,24.171875 7.77013333,25.8325625 7.77013333,25.8325625 C9.26716364,28.477125 11.6976485,27.7131875 12.6548,27.2711875 C12.8072848,26.152375 13.2400121,25.3895 13.7201333,24.9570625 C9.99352727,24.520375 6.07528485,23.035 6.07528485,16.402875 C6.07528485,14.51375 6.72952727,12.968875 7.80310303,11.7586875 C7.63001212,11.3209375 7.05407273,9.5614375 7.96692121,7.17825 C7.96692121,7.17825 9.37637576,6.712875 12.5826788,8.952625 C13.9210424,8.568 15.3572848,8.37675 16.7842545,8.3693125 C18.2091636,8.37675 19.6454061,8.568 20.9858303,8.952625 C24.1900727,6.712875 25.5964364,7.17825 25.5964364,7.17825 C26.5123758,9.5614375 25.9364364,11.3209375 25.7633455,11.7586875 C26.8389818,12.968875 27.489103,14.51375 27.489103,16.402875 C27.489103,23.052 23.5646788,24.5150625 19.8257091,24.94325 C20.4284364,25.4776875 20.9652242,26.5338125 20.9652242,28.1488125 C20.9652242,30.461875 20.9446182,32.3286875 20.9446182,32.8960625 C20.9446182,33.3593125 21.246497,33.898 22.0985576,33.7290625 C28.7615273,31.435125 33.5668606,24.9528125 33.5668606,17.3091875 C33.5668606,7.7488125 26.0518303,-3.55271368e-15 16.7821939,-3.55271368e-15" id="Fill-1" fill="#181717" mask="url(#mask-2)"></path>
        </g>
    </g>
</svg>