<?xml version="1.0" encoding="UTF-8"?>
<svg width="34px" height="34px" viewBox="0 0 34 34" version="1.1" xmlns="http://www.w3.org/2000/svg" xmlns:xlink="http://www.w3.org/1999/xlink">
    <!-- Generator: Sketch 51.3 (57544) - http://www.bohemiancoding.com/sketch -->
    <title>twitter</title>
    <desc>Created with Sketch.</desc>
    <defs></defs>
    <g id="twitter" stroke="none" stroke-width="1" fill="none" fill-rule="evenodd">
        <g id="Group-5">
            <path d="M34,17 C34,26.388845 26.388845,34 17,34 C7.611155,34 0,26.388845 0,17 C0,7.611155 7.611155,0 17,0 C26.388845,0 34,7.611155 34,17" id="Fill-1" fill="#1DA1F2"></path>
            <path d="M13.889493,25.966922 C21.427548,25.966922 25.549793,19.721887 25.549793,14.306707 C25.549793,14.129227 25.546138,13.952597 25.538063,13.776902 C26.338168,13.198477 27.033723,12.476742 27.582483,11.654962 C26.848168,11.981107 26.058008,12.201002 25.229003,12.300112 C26.075093,11.792832 26.724663,10.990007 27.031088,10.033077 C26.239058,10.502532 25.362368,10.843977 24.428898,11.027832 C23.681068,10.231297 22.616018,9.733112 21.437408,9.733112 C19.174028,9.733112 17.338708,11.568432 17.338708,13.830962 C17.338708,14.152602 17.374663,14.465317 17.445043,14.765367 C14.039093,14.594177 11.018788,12.963282 8.997828,10.483662 C8.645503,11.089117 8.442778,11.792832 8.442778,12.543382 C8.442778,13.965262 9.166298,15.220372 10.266453,15.954602 C9.594273,15.933947 8.962638,15.749242 8.410308,15.441967 C8.409373,15.459052 8.409373,15.476307 8.409373,15.494242 C8.409373,17.479247 9.822243,19.136237 11.697258,19.512022 C11.353093,19.605607 10.990823,19.656182 10.616993,19.656182 C10.352983,19.656182 10.096198,19.630002 9.846553,19.582232 C10.368283,21.210407 11.881113,22.395222 13.675038,22.428627 C12.272198,23.527932 10.505218,24.182942 8.585153,24.182942 C8.254418,24.182942 7.928273,24.163987 7.607483,24.126162 C9.421298,25.288537 11.574773,25.966922 13.889493,25.966922" id="Fill-3" fill="#FFFFFF"></path>
        </g>
    </g>
</svg>