<?xml version="1.0" encoding="UTF-8"?>
<svg width="16px" height="16px" viewBox="0 0 16 16" version="1.1" xmlns="http://www.w3.org/2000/svg" xmlns:xlink="http://www.w3.org/1999/xlink">
    <!-- Generator: Sketch 59.1 (86144) - https://sketch.com -->
    <title>Artboard</title>
    <desc>Created with Sketch.</desc>
    <g id="Artboard" stroke="none" stroke-width="1" fill="none" fill-rule="evenodd">
        <g id="debug" transform="translate(2.000000, 1.000000)" fill="#C5C5C5" fill-rule="nonzero">
            <path d="M1.85179381,10.4643013 L1.5161741,8.96036508 L0.837476453,8.96036508 C0.635650338,8.95964459 0.440417551,8.88560269 0.285568481,8.75105437 C0.150879072,8.63730898 0.0585666531,8.47830323 0.0245309264,8.30142396 C-0.0397303652,8.02936137 0.0239130566,7.7417418 0.196069891,7.5261991 C0.323343908,7.37416732 0.502574686,7.27962866 0.695770352,7.26262265 C0.849708794,7.25113769 1.00424129,7.25113769 1.15817973,7.26262265 L1.57583982,7.26262265 C1.6131309,7.26262265 1.62058912,7.26262265 1.62804733,7.21610916 L2.03079099,6.2005646 C2.13520601,5.92923591 2.23216282,5.66565945 2.32911962,5.42533975 L2.32911962,5.36332176 L2.13520601,5.36332176 C1.91980248,5.36108789 1.71584836,5.26215698 1.57583982,5.09199306 C1.32226048,4.70438064 1.0463065,4.38653845 0.770352511,4.04543951 C0.620118156,3.8509271 0.558479969,3.59822464 0.601408672,3.35280846 C0.644337375,3.10739227 0.787608177,2.89341479 0.994098986,2.7663185 C1.22678501,2.60125862 1.53932799,2.63049644 1.73992057,2.83608874 C1.87047573,2.9592035 1.9902759,3.0941036 2.09791493,3.23920566 C2.2247046,3.39425063 2.33657784,3.55704785 2.46336751,3.70434057 C2.48580381,3.73194301 2.5181599,3.74875886 2.5528661,3.75085407 L3.04510834,3.75085407 L3.04510834,3.47177312 C3.11606084,2.56296312 3.460508,1.70044439 4.02959283,1.00655808 C4.35988214,0.573424936 4.8144998,0.261113682 5.32732239,0.1150495 C6.12417106,-0.142485293 6.99231997,0.0385737318 7.63191109,0.595688909 C7.87644018,0.800432294 8.08575747,1.04683621 8.250943,1.32440027 C8.624936,1.86501958 8.87263005,2.48876079 8.97438994,3.14617868 C8.97438994,3.31672815 8.97438994,3.50278211 9.03405567,3.68108383 L9.03405567,3.68108383 L9.52629791,3.68108383 C9.55273123,3.67309905 9.57616418,3.6568612 9.59342185,3.63457034 L9.86937584,3.27021466 C9.97379086,3.13067418 10.0856641,2.98338146 10.1975373,2.85159323 C10.3258039,2.67778633 10.5237972,2.57488686 10.7345289,2.57251229 C10.926764,2.59549034 11.1004226,2.70266516 11.2118547,2.86709773 C11.4766878,3.19123108 11.4766878,3.66704042 11.2118547,3.99117377 C10.9582754,4.31676821 10.704696,4.6346104 10.4660331,4.95245259 C10.3205993,5.13892712 10.1002596,5.2448518 9.86937584,5.23928579 L9.71275331,5.23928579 L9.71275331,5.35556951 L10.3914509,7.12308218 C10.3914509,7.12308218 10.3914509,7.16959567 10.4511167,7.16959567 L11.1969383,7.16959567 C11.606373,7.14302274 11.9595903,7.4651383 11.9875091,7.89055479 C12.0309816,8.14898391 11.9597046,8.41398741 11.7935955,8.6115139 C11.678793,8.74442845 11.5233542,8.83205788 11.3535608,8.85958585 L11.1298143,8.85958585 L10.5555317,8.85958585 C10.5107824,8.85958585 10.495866,8.85958585 10.4884078,8.92160384 L10.219912,10.3402653 C10.2145106,10.3605568 10.2145106,10.3819918 10.219912,10.4022833 C10.3821108,10.502291 10.5219489,10.6370712 10.6301139,10.797648 L11.3162697,11.7046611 C11.5983334,12.0427313 11.5983334,12.5449326 11.3162697,12.8830028 C11.1863859,13.0510716 10.986334,13.1434888 10.7792782,13.1310748 C10.5865202,13.1081387 10.4099478,13.0080294 10.2870359,12.8519939 C10.115497,12.6349309 9.943958,12.4101157 9.76496082,12.1930527 C9.71280537,12.1379554 9.65532154,12.0885966 9.59342185,12.04576 C9.5559089,12.0083511 9.49668693,12.0083511 9.45917397,12.04576 C9.39559998,12.0862067 9.3378485,12.1357952 9.287635,12.1930527 C8.90243367,12.6601997 8.45249969,13.0651672 7.95261437,13.3946513 C7.58361131,13.6563731 7.17156959,13.8455546 6.73692519,13.9528131 C6.59916726,13.9801921 6.45947644,13.995749 6.3192651,13.9993266 L5.93889609,13.9993266 C5.64055679,14.0061116 5.34319077,13.9615818 5.05882662,13.8675384 C4.53277981,13.7089647 4.04137953,13.4456795 3.61193275,13.0923136 C3.32376352,12.8624837 3.05887211,12.6027341 2.82136187,12.3170887 C2.76513058,12.2612677 2.70532813,12.2094676 2.64236469,12.1620437 C2.59034969,12.1098642 2.50792429,12.1098642 2.45590929,12.1620437 C2.38056701,12.232119 2.31526645,12.3130468 2.26199568,12.4023634 C2.12028958,12.5884174 1.97112526,12.7822236 1.82196094,12.9605253 C1.72247405,13.1003937 1.58062247,13.2014201 1.41921729,13.2473585 C1.16296942,13.3106296 0.895775726,13.2026244 0.747977863,12.9760298 C0.479999864,12.6531044 0.479999864,12.1748792 0.747977863,11.8519538 L1.5161741,10.7511345 C1.61045262,10.6352284 1.7241642,10.5380462 1.85179381,10.4643013 Z M6.08806041,13.231854 L6.08806041,13.231854 C6.25214116,13.231854 6.4162219,13.231854 6.57284444,13.1853405 C6.75128417,13.1477475 6.92603839,13.0932544 7.09491955,13.0225433 C7.74481375,12.7462905 8.31511336,12.3003681 8.75064346,11.7279178 C8.86616224,11.5737105 9.0141415,11.4490688 9.18321998,11.3635621 C9.28216798,11.3255951 9.35163992,11.2323228 9.36221716,11.1232424 C9.45171575,10.6891165 9.52629791,10.2549906 9.60833829,9.82861692 C9.69037866,9.40224325 9.75004439,9.09215331 9.81716833,8.72779763 C9.81716833,8.52623917 9.88429227,8.31692846 9.90666692,8.11536999 C9.92942936,8.01860004 9.92942936,7.91755451 9.90666692,7.82078455 C9.62325472,7.0455597 9.32492608,6.27033484 9.03405567,5.53387123 L8.65368666,4.49506993 C8.63833788,4.46330928 8.60564653,4.44477464 8.57164628,4.44855643 L5.43173741,4.44855643 L3.52243416,4.44855643 C3.47022665,4.44855643 3.447852,4.44855643 3.42547735,4.51057442 C3.28377125,4.9059391 3.13460693,5.28579928 2.98544262,5.7044207 C2.72440506,6.40212307 2.47082572,7.09207319 2.23962103,7.78202331 C2.19025295,7.92339766 2.1773954,8.07575239 2.20232995,8.22390147 C2.20232995,8.39445094 2.2694539,8.56500041 2.30674497,8.73554988 C2.39624356,9.20068479 2.48574215,9.6658197 2.58269896,10.1309546 C2.6498229,10.4720536 2.72440506,10.8054002 2.78407079,11.1464992 C2.79662088,11.2445274 2.85948824,11.3276948 2.94815154,11.3635621 C3.0390781,11.402996 3.12439381,11.4551603 3.20173088,11.5186071 C3.31861961,11.6297638 3.4282498,11.7488957 3.52989237,11.8752105 C3.96714136,12.3851321 4.51759752,12.7763281 5.13340878,13.0147911 C5.34032664,13.1035105 5.55920294,13.1584256 5.78227356,13.1775883 L6.08806041,13.231854 Z M3.75363885,3.64232259 L8.22856835,3.64232259 L8.22856835,3.55704785 L8.22856835,3.22370116 C8.13354722,2.59070723 7.8758737,1.9961201 7.48274677,1.50270199 C7.28950762,1.23659613 7.03228233,1.02805054 6.73692519,0.898026602 C6.42687363,0.759883173 6.08526597,0.716843755 5.75244069,0.773990626 C5.48859349,0.823950875 5.23580236,0.9237986 5.00661911,1.06857607 C4.94029402,1.10874769 4.87785288,1.15547772 4.82016371,1.20811654 C4.46846102,1.55770651 4.19147681,1.98031793 4.00721819,2.44847631 C3.89851328,2.74276776 3.82584703,3.05010097 3.79092993,3.36324164 C3.79092993,3.45626862 3.79092993,3.5492956 3.75363885,3.64232259 Z" id="Shape"></path>
        </g>
    </g>
</svg>