<?xml version="1.0" encoding="UTF-8"?>
<svg width="16px" height="16px" viewBox="0 0 16 16" version="1.1" xmlns="http://www.w3.org/2000/svg" xmlns:xlink="http://www.w3.org/1999/xlink">
    <!-- Generator: Sketch 51.2 (57519) - http://www.bohemiancoding.com/sketch -->
    <title>obj_namespace</title>
    <desc>Created with Sketch.</desc>
    <defs></defs>
    <g id="obj_namespace" stroke="none" stroke-width="1" fill="none" fill-rule="evenodd">
        <polygon id="Path-160" fill="#D5C2B2" points="3.00073242 5.03112793 3.00073242 6.02197266 8.03955078 15.032959 9.02453613 15.032959 14.0334473 6.02197266 14.0334473 5.03112793 13.0150146 4.03039551 4.01806641 4.00878906"></polygon>
        <g id="Group" transform="translate(2.000000, 1.000000)" fill="#8B572A">
            <path d="M7.22222222,7.86108083 L7.22222222,13.758402 C7.22222222,13.9517568 7.41481481,14.0484342 7.58333333,13.9759262 C8.73888889,13.3233538 12.2537037,11.3172978 12.2537037,11.3172978 C12.7111111,11.0514349 13,10.5680479 13,10.0363223 L13,4.74323478 C13,4.54987999 12.8074074,4.45320259 12.6388889,4.52571064 L7.46296296,7.4502019 C7.31851852,7.54687929 7.22222222,7.69189539 7.22222222,7.86108083 L7.22222222,7.86108083 Z M6.74074074,6.21756509 L11.9407407,3.29307383 C12.1092593,3.19639643 12.1092593,2.97887229 11.9407407,2.88219489 C10.7851852,2.22962247 7.2462963,0.199397131 7.2462963,0.199397131 C6.78888889,-0.0664657103 6.21111111,-0.0664657103 5.7537037,0.199397131 C5.7537037,0.199397131 2.21481481,2.20545312 1.05925926,2.88219489 C0.890740741,2.97887229 0.890740741,3.19639643 1.05925926,3.29307383 L6.25925926,6.21756509 C6.4037037,6.29007313 6.5962963,6.29007313 6.74074074,6.21756509 L6.74074074,6.21756509 Z M5.53703704,7.4502019 L0.361111111,4.52571064 C0.192592593,4.42903324 0,4.54987999 0,4.74323478 L0,10.0121529 C0,10.5438786 0.288888889,11.0272656 0.746296296,11.2931284 C0.746296296,11.2931284 4.26111111,13.2991844 5.41666667,13.9517568 C5.58518519,14.0484342 5.77777778,13.9275875 5.77777778,13.7342327 L5.77777778,7.86108083 C5.77777778,7.69189539 5.68148148,7.54687929 5.53703704,7.4502019 L5.53703704,7.4502019 Z" id="Shape"></path>
        </g>
    </g>
</svg>