<?xml version="1.0" encoding="UTF-8"?>
<svg width="16px" height="16px" viewBox="0 0 16 16" version="1.1" xmlns="http://www.w3.org/2000/svg" xmlns:xlink="http://www.w3.org/1999/xlink">
    <!-- Generator: Sketch 51.2 (57519) - http://www.bohemiancoding.com/sketch -->
    <title>open</title>
    <desc>Created with Sketch.</desc>
    <defs></defs>
    <g id="open" stroke="none" stroke-width="1" fill="none" fill-rule="evenodd">
        <g id="Group" transform="translate(2.000000, 2.000000)" fill="#119CD8" fill-rule="nonzero">
            <path d="M11,0 L1,0 C0.45,0 0,0.45 0,1 L0,10 C0,10.55 0.45,11 1,11 L4,11 C4.15,11 4.25,10.9 4.25,10.75 L4.25,9.75 C4.25,9.6 4.15,9.5 4,9.5 L1.875,9.5 C1.675,9.5 1.5,9.325 1.5,9.125 L1.5,2.875 C1.5,2.675 1.675,2.5 1.875,2.5 L10.125,2.5 C10.325,2.5 10.5,2.675 10.5,2.875 L10.5,9.125 C10.5,9.325 10.325,9.5 10.125,9.5 L8,9.5 C7.85,9.5 7.75,9.6 7.75,9.75 L7.75,10.75 C7.75,10.9 7.85,11 8,11 L11,11 C11.55,11 12,10.55 12,10 L12,1 C12,0.45 11.55,0 11,0 Z M8.875,8.15 L9.4,7.625 C9.55,7.475 9.55,7.25 9.4,7.1 L6.25,3.95 C6.1,3.8 5.875,3.8 5.725,3.95 L2.6,7.075 C2.45,7.225 2.45,7.45 2.6,7.6 L3.125,8.125 C3.275,8.275 3.5,8.275 3.65,8.125 L4.8,6.975 C4.95,6.825 5.25,6.925 5.25,7.15 L5.25,11.625 C5.25,11.825 5.4,12 5.6,12 L6.35,12 C6.55,12 6.75,11.825 6.75,11.625 L6.75,7.15 C6.75,6.925 7,6.825 7.175,6.975 L8.325,8.15 C8.475,8.275 8.725,8.275 8.875,8.15 Z" id="Shape"></path>
        </g>
    </g>
</svg>