<svg xmlns="http://www.w3.org/2000/svg" xmlns:xlink="http://www.w3.org/1999/xlink" width="0" height="0" style="display:none;"><symbol viewBox="0 0 24 24" id="myext-icons-leaf">
  <g fill="currentColor" transform="scale(0.75)">
    <path d="M17.009 1.642a1.208 1.208 0 0 0-2.135 0l-.006.012l-1.488 2.983l-2.663-1.574c-.87-.518-1.987.213-1.805 1.243l1.33 7.604l-3.116-1.872c-.928-.568-2.087.292-1.793 1.352l.002.009l.33 1.143l-2.908-.264c-1.108-.118-1.597 1.08-1.148 1.829l.004.007l1.551 2.491l-1.176.223c-1.15.203-1.275 1.627-.458 2.189l.009.006l5.995 3.932l-1.546 2.203l-.004.005a1.167 1.167 0 0 0 1.364 1.756l7.598-2.775v4.829a1 1 0 1 0 2 0V24.15l7.578 2.768c1.048.399 2.055-.82 1.352-1.773l-1.537-2.19l6-3.937l.014-.01c.402-.283.59-.76.51-1.217a1.19 1.19 0 0 0-.967-.973l-1.177-.223l1.55-2.492l.005-.007c.497-.83-.122-1.89-1.106-1.833l-.016.001l-2.935.267l.321-1.125l.002-.007c.295-1.064-.874-1.927-1.804-1.345l-.004.002L21.82 11.9l1.05-7.65v-.01a1.21 1.21 0 0 0-.525-1.147a1.19 1.19 0 0 0-1.308-.017L18.494 4.62l-1.479-2.966zm.643 20.638l5.652-2.908a1 1 0 1 0-.915-1.779l-5.443 2.8v-8.12a1 1 0 1 0-2 0v8.12l-5.442-2.8a1 1 0 0 0-.915 1.779l5.644 2.904l-5.08 1.855l.413-.59l.01-.015a1.356 1.356 0 0 0-.393-1.881l-.003-.002l-4.9-3.214l.375-.07c.881-.143 1.263-1.134.816-1.833l-1.316-2.113l2.467.224c.903.102 1.506-.758 1.286-1.53l-.093-.321l2.887 1.734c.87.522 1.99-.21 1.81-1.24l-1.333-7.621l1.917 1.133c.59.352 1.39.136 1.7-.513l1.145-2.297l1.151 2.308c.32.64 1.118.838 1.699.49l1.867-1.135l-1.054 7.681v.01c-.122 1.034 1 1.67 1.827 1.174l.01-.006l2.602-1.645l-.068.239c-.253.885.502 1.585 1.253 1.532h.01l2.49-.227l-1.328 2.133l-.007.013a1.212 1.212 0 0 0 .794 1.791l.011.003l.408.077l-4.913 3.223l-.003.002a1.36 1.36 0 0 0-.378 1.904l.409.582z"></path>
  </g>
</symbol><symbol viewBox="0 0 24 24" id="myext-icons-tree">
  <g fill="currentColor" fill-rule="evenodd" clip-rule="evenodd" transform="scale(1.2)">
    <path d="M13.358 7.486a1 1 0 0 1-.344 1.371L11 10.067V19a1 1 0 1 1-2 0v-6.434l-2.015-1.209a1 1 0 0 1 1.03-1.714l.985.59V6a1 1 0 0 1 2 0v1.734l.986-.591a1 1 0 0 1 1.371.343M9.9 2c-.644 0-1.241.256-1.71.7c-.262.25-.482.56-.641.911a1 1 0 1 1-1.823-.823a4.9 4.9 0 0 1 1.087-1.537A4.47 4.47 0 0 1 9.9 0c1.195 0 2.277.48 3.087 1.251c.454.431.824.954 1.087 1.537a1 1 0 0 1-1.823.823a2.9 2.9 0 0 0-.642-.91A2.47 2.47 0 0 0 9.9 2"></path>
    <path d="M12.183 3.294a1.02 1.02 0 0 1 .895-1.11c2.606-.299 4.822 1.725 5.082 4.35c.176 1.772-.563 3.453-1.854 4.469a.99.99 0 0 1-1.4-.162a1.01 1.01 0 0 1 .183-1.407c.73-.575 1.193-1.57 1.084-2.672c-.165-1.663-1.522-2.745-2.898-2.587a.98.98 0 0 1-1.092-.88"></path>
    <path d="M15.417 9.353a1.013 1.013 0 0 1 1.214.74c.131.517.179 1.069.13 1.632c-.215 2.463-2.506 4.157-4.682 3.937c-.59-.06-1.225-.174-1.791-.502c-.605-.35-1.032-.886-1.315-1.6a.99.99 0 0 1 .557-1.293a1.01 1.01 0 0 1 1.298.576c.143.362.297.503.442.587c.184.107.47.187.983.24c1.12.113 2.403-.825 2.518-2.146c.03-.34 0-.664-.075-.963a.987.987 0 0 1 .72-1.208"></path>
    <path d="M7.621 3.294a1.02 1.02 0 0 0-.895-1.11C4.12 1.886 1.905 3.91 1.644 6.535c-.175 1.772.563 3.453 1.855 4.469a.99.99 0 0 0 1.4-.162a1.01 1.01 0 0 0-.183-1.407c-.731-.575-1.194-1.57-1.085-2.672C3.796 5.1 5.153 4.017 6.53 4.175a.98.98 0 0 0 1.092-.88"></path>
    <path d="M4.388 9.353a1.013 1.013 0 0 0-1.215.74a4.9 4.9 0 0 0-.13 1.632c.216 2.463 2.507 4.157 4.682 3.937c.591-.06 1.226-.174 1.792-.502c.605-.35 1.032-.886 1.315-1.6a.99.99 0 0 0-.557-1.293a1.01 1.01 0 0 0-1.298.576c-.143.362-.297.503-.443.587c-.184.107-.469.187-.982.24c-1.12.113-2.403-.825-2.518-2.146c-.03-.34 0-.664.075-.963a.987.987 0 0 0-.721-1.208"></path>
  </g>
</symbol></svg>