<svg width="118" height="122" viewBox="0 0 118 122" fill="none" xmlns="http://www.w3.org/2000/svg">
<circle cx="56" cy="56" r="56" fill="white"/>
<path d="M49.8299 36.5633C51.2136 35.1104 52.9209 34.0049 54.8127 33.3368C56.7046 32.6687 58.7275 32.4569 60.7167 32.7186C62.7059 32.9804 64.6052 33.7082 66.2599 34.843C67.9145 35.9777 69.2776 37.4873 70.2384 39.2486C72.2263 38.3632 74.3782 37.9058 76.5543 37.9059C80.7363 37.9059 84.7471 39.5672 87.7042 42.5244C90.6613 45.4815 92.3225 49.4922 92.3225 53.6742C92.3225 57.8562 90.6613 61.8669 87.7042 64.824C84.7471 67.7811 80.7363 69.4424 76.5543 69.4424C75.5224 69.4431 74.4931 69.3388 73.4823 69.1309C72.4912 70.907 71.0436 72.3861 69.2892 73.4153C67.5349 74.4445 65.5375 74.9863 63.5036 74.9849C61.7725 74.9906 60.0634 74.5973 58.5089 73.8356C57.4903 76.2434 55.771 78.289 53.5743 79.7067C51.3777 81.1243 48.8054 81.8483 46.1918 81.7846C43.5782 81.7209 41.0442 80.8724 38.9192 79.3494C36.7943 77.8264 35.1766 75.6994 34.2766 73.2448C33.4572 73.4177 32.6219 73.5041 31.7845 73.5026C29.1065 73.4732 26.512 72.5666 24.3984 70.9218C22.2848 69.2769 20.7688 66.9845 20.0826 64.3957C19.3964 61.8069 19.5778 59.0645 20.5991 56.5887C21.6204 54.1128 23.4253 52.0401 25.7371 50.6881C24.9688 48.9226 24.5739 47.0173 24.5771 45.0919C24.5807 42.1481 25.5067 39.2795 27.225 36.8893C28.9432 34.499 31.3674 32.7074 34.1566 31.7662C36.9458 30.825 39.9599 30.7816 42.7751 31.642C45.5902 32.5025 48.065 34.2235 49.8514 36.5633H49.8299Z" fill="#0D9DDA"/>
<circle cx="96" cy="100" r="22" fill="#153867"/>
<path fill-rule="evenodd" clip-rule="evenodd" d="M105.2 97.5H99.6C98.3 97.5 97.5 96.7 97.5 95.4V89.8C97.5 89.35 97.15 89 96.7 89H88.4C87.1 89 86 90.1 86 91.4V110.6C86 111.9 87.1 113 88.4 113H103.6C104.9 113 106 111.9 106 110.6V98.3C106 97.85 105.65 97.5 105.2 97.5ZM105.85 94.45L100.55 89.15C100.45 89.05 100.25 89 100.1 89C99.8 89 99.5 89.25 99.5 89.55V93.8C99.5 94.7 100.3 95.5 101.2 95.5H105.45C105.75 95.5 106 95.2 106 94.9C106 94.75 105.95 94.55 105.85 94.45V94.45Z" fill="white"/>
<path d="M90.3428 102.8C90.6477 102.8 90.8953 103.047 90.8955 103.353C90.8955 103.658 90.6479 103.906 90.3428 103.906H90.1777C89.9636 103.907 89.7901 104.08 89.79 104.294V105.729C89.79 105.962 89.7106 106.188 89.5654 106.369L89.0605 107L89.5654 107.631C89.7104 107.812 89.7899 108.037 89.79 108.27V109.706C89.7902 109.92 89.9637 110.093 90.1777 110.094H90.3428C90.6479 110.094 90.8955 110.342 90.8955 110.647C90.8952 110.952 90.6478 111.2 90.3428 111.2H90.1777C89.3529 111.2 88.6847 110.531 88.6846 109.706V108.3L87.9209 107.346C87.7596 107.144 87.7599 106.857 87.9209 106.655V106.654L88.6846 105.699V104.294C88.6846 103.469 89.3528 102.8 90.1777 102.8H90.3428ZM93.8223 102.8C94.6471 102.8 95.3154 103.469 95.3154 104.294V105.699L96.0791 106.654V106.655C96.2399 106.857 96.2401 107.143 96.0791 107.345V107.346L95.3154 108.3V109.706C95.3153 110.531 94.6471 111.2 93.8223 111.2H93.6582C93.353 111.2 93.1048 110.952 93.1045 110.647C93.1045 110.342 93.3529 110.094 93.6582 110.094H93.8223C94.0363 110.093 94.2098 109.92 94.21 109.706V108.27C94.2101 108.037 94.2896 107.812 94.4346 107.631L94.9385 107L94.4346 106.369C94.2894 106.188 94.21 105.962 94.21 105.729V104.294C94.2099 104.08 94.0364 103.907 93.8223 103.906H93.6582C93.3529 103.906 93.1045 103.658 93.1045 103.353C93.1047 103.047 93.353 102.8 93.6582 102.8H93.8223Z" fill="#153867" stroke="#153867" stroke-width="0.4" stroke-linecap="round" stroke-linejoin="round"/>
</svg>
