<svg width="16" height="16" viewBox="0 0 16 16" fill="none" xmlns="http://www.w3.org/2000/svg">
<path fill-rule="evenodd" clip-rule="evenodd" d="M14.5002 2H13.0002V1H12.0002V2H4.00024V1H3.00024V2H1.50024L1.00024 2.5V14.5L1.50024 15H14.5002L15.0002 14.5V2.5L14.5002 2ZM14.0002 14H2.00024V5H14.0002V14ZM14.0002 4H2.00024V3H14.0002V4ZM4.00024 8H3.00024V9H4.00024V8ZM3.00024 10H4.00024V11H3.00024V10ZM4.00024 12H3.00024V13H4.00024V12ZM6.00024 8H7.00024V9H6.00024V8ZM7.00024 10H6.00024V11H7.00024V10ZM6.00024 12H7.00024V13H6.00024V12ZM7.00024 6H6.00024V7H7.00024V6ZM9.00024 8H10.0002V9H9.00024V8ZM10.0002 10H9.00024V11H10.0002V10ZM9.00024 12H10.0002V13H9.00024V12ZM10.0002 6H9.00024V7H10.0002V6ZM12.0002 8H13.0002V9H12.0002V8ZM13.0002 10H12.0002V11H13.0002V10ZM12.0002 6H13.0002V7H12.0002V6Z" fill="#424242"/>
</svg>
