<?xml version="1.0" encoding="UTF-8"?>
<svg width="16px" height="12px" viewBox="0 0 16 12" version="1.1" xmlns="http://www.w3.org/2000/svg" xmlns:xlink="http://www.w3.org/1999/xlink">
    <!-- Generator: Sketch 48.1 (47250) - http://www.bohemiancoding.com/sketch -->
    <title>Shape</title>
    <desc>Created with Sketch.</desc>
    <defs></defs>
    <g id="Page-1" stroke="none" stroke-width="1" fill="none" fill-rule="evenodd">
        <g id="salesforce" fill="#498BA7" fill-rule="nonzero">
            <path d="M4.4,0.4 C5,0.5 5.6,0.7 6.1,1.1 C6.3,1.3 6.5,1.4 6.6,1.6 L6.7,1.6 C6.9,1.4 7.1,1.3 7.3,1.1 C7.5,1 7.8,0.9 8,0.8 C8.1,0.8 8.2,0.8 8.4,0.7 L9,0.7 C9.4,0.7 9.7,0.8 10,1 C10.5,1.3 10.8,1.6 11.1,2.1 C11.1,2.2 11.2,2.2 11.2,2.1 C11.5,2 11.7,1.9 12,1.9 L12.8,1.9 C13.2,1.9 13.7,2.1 14.1,2.3 C14.4,2.5 14.7,2.6 14.9,2.9 C15.2,3.2 15.4,3.5 15.6,3.9 C15.8,4.2 15.9,4.6 15.9,5 L15.9,5.8 C15.9,6.3 15.7,6.7 15.5,7.1 C15.3,7.5 15,7.9 14.7,8.2 C14.5,8.4 14.2,8.6 13.9,8.7 L13,9 L11.7,9 C11.5,9.4 11.2,9.6 10.9,9.9 C10.6,10.1 10.3,10.2 9.9,10.3 L9.3,10.3 C9,10.3 8.8,10.2 8.5,10.1 L8.4,10.1 C8.3,10.4 8.1,10.6 7.9,10.9 C7.7,11.2 7.4,11.4 7.1,11.5 C5.9,12.1 4.4,11.8 3.5,10.6 C3.3,10.4 3.2,10.2 3.1,9.9 C3.1,9.8 3,9.9 3,9.9 L2.3,9.9 C2,9.9 1.8,9.8 1.6,9.8 C1.3,9.7 1.1,9.6 0.8,9.4 C0.5,9.1 0.2,8.8 1.77635684e-15,8.4 C0.1,8 0.1,7.7 1.77635684e-15,7.5 L1.77635684e-15,6.9 C1.77635684e-15,6.6 0.1,6.3 0.2,6.1 C0.3,5.9 0.4,5.7 0.6,5.5 C0.7,5.4 0.8,5.3 0.8,5.2 C1,5 1.1,4.9 1.3,4.8 C1.3,4.8 1.4,4.8 1.3,4.7 C1.2,4.5 1.1,4.3 1.1,4 L1.1,3.1 C1.3,1.6 2.5,0.4 4,0.3 L4.2,0.3 C4.3,0.4 4.4,0.4 4.4,0.4 Z" id="Shape"></path>
        </g>
    </g>
</svg>